# Tiled2Unity generated file. Do not modify by hand.
# Wavefront file for 'OverworldTest_mesh_0002.obj'

# Vertices (Count = 636)
v -384 -400 0
v -400 -400 0
v -400 -384 0
v -384 -384 0
v -368 -400 0
v -384 -400 0
v -384 -384 0
v -368 -384 0
v -352 -400 0
v -368 -400 0
v -368 -384 0
v -352 -384 0
v -336 -400 0
v -352 -400 0
v -352 -384 0
v -336 -384 0
v -320 -400 0
v -336 -400 0
v -336 -384 0
v -320 -384 0
v -288 -400 0
v -304 -400 0
v -304 -384 0
v -288 -384 0
v -272 -400 0
v -288 -400 0
v -288 -384 0
v -272 -384 0
v -256 -400 0
v -272 -400 0
v -272 -384 0
v -256 -384 0
v -240 -400 0
v -256 -400 0
v -256 -384 0
v -240 -384 0
v -224 -400 0
v -240 -400 0
v -240 -384 0
v -224 -384 0
v -208 -400 0
v -224 -400 0
v -224 -384 0
v -208 -384 0
v -192 -400 0
v -208 -400 0
v -208 -384 0
v -192 -384 0
v -176 -400 0
v -192 -400 0
v -192 -384 0
v -176 -384 0
v -160 -400 0
v -176 -400 0
v -176 -384 0
v -160 -384 0
v -144 -400 0
v -160 -400 0
v -160 -384 0
v -144 -384 0
v -128 -400 0
v -144 -400 0
v -144 -384 0
v -128 -384 0
v -112 -400 0
v -128 -400 0
v -128 -384 0
v -112 -384 0
v -96 -400 0
v -112 -400 0
v -112 -384 0
v -96 -384 0
v -80 -400 0
v -96 -400 0
v -96 -384 0
v -80 -384 0
v -64 -400 0
v -80 -400 0
v -80 -384 0
v -64 -384 0
v -48 -400 0
v -64 -400 0
v -64 -384 0
v -48 -384 0
v -32 -400 0
v -48 -400 0
v -48 -384 0
v -32 -384 0
v -16 -400 0
v -32 -400 0
v -32 -384 0
v -16 -384 0
v 0 -400 0
v -16 -400 0
v -16 -384 0
v 0 -384 0
v -384 -384 0
v -400 -384 0
v -400 -368 0
v -384 -368 0
v 0 -384 0
v -16 -384 0
v -16 -368 0
v 0 -368 0
v -384 -368 0
v -400 -368 0
v -400 -352 0
v -384 -352 0
v 0 -368 0
v -16 -368 0
v -16 -352 0
v 0 -352 0
v -384 -352 0
v -400 -352 0
v -400 -336 0
v -384 -336 0
v 0 -352 0
v -16 -352 0
v -16 -336 0
v 0 -336 0
v -384 -336 0
v -400 -336 0
v -400 -320 0
v -384 -320 0
v -368 -336 0
v -384 -336 0
v -384 -320 0
v -368 -320 0
v -352 -336 0
v -368 -336 0
v -368 -320 0
v -352 -320 0
v -336 -336 0
v -352 -336 0
v -352 -320 0
v -336 -320 0
v -224 -336 0
v -240 -336 0
v -240 -320 0
v -224 -320 0
v -208 -336 0
v -224 -336 0
v -224 -320 0
v -208 -320 0
v 0 -336 0
v -16 -336 0
v -16 -320 0
v 0 -320 0
v -384 -320 0
v -400 -320 0
v -400 -304 0
v -384 -304 0
v -224 -320 0
v -240 -320 0
v -240 -304 0
v -224 -304 0
v -208 -320 0
v -224 -320 0
v -224 -304 0
v -208 -304 0
v 0 -320 0
v -16 -320 0
v -16 -304 0
v 0 -304 0
v -384 -304 0
v -400 -304 0
v -400 -288 0
v -384 -288 0
v 0 -304 0
v -16 -304 0
v -16 -288 0
v 0 -288 0
v -384 -288 0
v -400 -288 0
v -400 -272 0
v -384 -272 0
v -368 -288 0
v -384 -288 0
v -384 -272 0
v -368 -272 0
v -352 -288 0
v -368 -288 0
v -368 -272 0
v -352 -272 0
v -336 -288 0
v -352 -288 0
v -352 -272 0
v -336 -272 0
v 0 -288 0
v -16 -288 0
v -16 -272 0
v 0 -272 0
v -384 -272 0
v -400 -272 0
v -400 -256 0
v -384 -256 0
v -368 -272 0
v -384 -272 0
v -384 -256 0
v -368 -256 0
v -352 -272 0
v -368 -272 0
v -368 -256 0
v -352 -256 0
v -336 -272 0
v -352 -272 0
v -352 -256 0
v -336 -256 0
v 0 -272 0
v -16 -272 0
v -16 -256 0
v 0 -256 0
v -384 -256 0
v -400 -256 0
v -400 -240 0
v -384 -240 0
v -368 -256 0
v -384 -256 0
v -384 -240 0
v -368 -240 0
v -352 -256 0
v -368 -256 0
v -368 -240 0
v -352 -240 0
v -336 -256 0
v -352 -256 0
v -352 -240 0
v -336 -240 0
v 0 -256 0
v -16 -256 0
v -16 -240 0
v 0 -240 0
v -384 -240 0
v -400 -240 0
v -400 -224 0
v -384 -224 0
v -368 -240 0
v -384 -240 0
v -384 -224 0
v -368 -224 0
v -352 -240 0
v -368 -240 0
v -368 -224 0
v -352 -224 0
v -336 -240 0
v -352 -240 0
v -352 -224 0
v -336 -224 0
v -384 -224 0
v -400 -224 0
v -400 -208 0
v -384 -208 0
v -368 -224 0
v -384 -224 0
v -384 -208 0
v -368 -208 0
v -352 -224 0
v -368 -224 0
v -368 -208 0
v -352 -208 0
v -336 -224 0
v -352 -224 0
v -352 -208 0
v -336 -208 0
v 0 -224 0
v -16 -224 0
v -16 -208 0
v 0 -208 0
v -384 -208 0
v -400 -208 0
v -400 -192 0
v -384 -192 0
v -368 -208 0
v -384 -208 0
v -384 -192 0
v -368 -192 0
v -352 -208 0
v -368 -208 0
v -368 -192 0
v -352 -192 0
v -336 -208 0
v -352 -208 0
v -352 -192 0
v -336 -192 0
v 0 -208 0
v -16 -208 0
v -16 -192 0
v 0 -192 0
v -384 -192 0
v -400 -192 0
v -400 -176 0
v -384 -176 0
v -368 -192 0
v -384 -192 0
v -384 -176 0
v -368 -176 0
v -352 -192 0
v -368 -192 0
v -368 -176 0
v -352 -176 0
v -336 -192 0
v -352 -192 0
v -352 -176 0
v -336 -176 0
v -32 -192 0
v -48 -192 0
v -48 -176 0
v -32 -176 0
v -16 -192 0
v -32 -192 0
v -32 -176 0
v -16 -176 0
v 0 -192 0
v -16 -192 0
v -16 -176 0
v 0 -176 0
v -384 -176 0
v -400 -176 0
v -400 -160 0
v -384 -160 0
v -368 -176 0
v -384 -176 0
v -384 -160 0
v -368 -160 0
v -352 -176 0
v -368 -176 0
v -368 -160 0
v -352 -160 0
v -336 -176 0
v -352 -176 0
v -352 -160 0
v -336 -160 0
v -32 -176 0
v -48 -176 0
v -48 -160 0
v -32 -160 0
v -16 -176 0
v -32 -176 0
v -32 -160 0
v -16 -160 0
v 0 -176 0
v -16 -176 0
v -16 -160 0
v 0 -160 0
v -384 -160 0
v -400 -160 0
v -400 -144 0
v -384 -144 0
v 0 -160 0
v -16 -160 0
v -16 -144 0
v 0 -144 0
v 0 -144 0
v -16 -144 0
v -16 -128 0
v 0 -128 0
v -384 -128 0
v -400 -128 0
v -400 -112 0
v -384 -112 0
v 0 -128 0
v -16 -128 0
v -16 -112 0
v 0 -112 0
v -384 -112 0
v -400 -112 0
v -400 -96 0
v -384 -96 0
v -240 -112 0
v -256 -112 0
v -256 -96 0
v -240 -96 0
v -224 -112 0
v -240 -112 0
v -240 -96 0
v -224 -96 0
v -208 -112 0
v -224 -112 0
v -224 -96 0
v -208 -96 0
v -192 -112 0
v -208 -112 0
v -208 -96 0
v -192 -96 0
v -176 -112 0
v -192 -112 0
v -192 -96 0
v -176 -96 0
v 0 -112 0
v -16 -112 0
v -16 -96 0
v 0 -96 0
v -384 -96 0
v -400 -96 0
v -400 -80 0
v -384 -80 0
v -320 -96 0
v -336 -96 0
v -336 -80 0
v -320 -80 0
v -304 -96 0
v -320 -96 0
v -320 -80 0
v -304 -80 0
v -240 -96 0
v -256 -96 0
v -256 -80 0
v -240 -80 0
v -224 -96 0
v -240 -96 0
v -240 -80 0
v -224 -80 0
v -208 -96 0
v -224 -96 0
v -224 -80 0
v -208 -80 0
v -192 -96 0
v -208 -96 0
v -208 -80 0
v -192 -80 0
v -176 -96 0
v -192 -96 0
v -192 -80 0
v -176 -80 0
v 0 -96 0
v -16 -96 0
v -16 -80 0
v 0 -80 0
v -384 -80 0
v -400 -80 0
v -400 -64 0
v -384 -64 0
v -240 -80 0
v -256 -80 0
v -256 -64 0
v -240 -64 0
v -224 -80 0
v -240 -80 0
v -240 -64 0
v -224 -64 0
v -208 -80 0
v -224 -80 0
v -224 -64 0
v -208 -64 0
v -192 -80 0
v -208 -80 0
v -208 -64 0
v -192 -64 0
v -176 -80 0
v -192 -80 0
v -192 -64 0
v -176 -64 0
v -48 -80 0
v -64 -80 0
v -64 -64 0
v -48 -64 0
v -32 -80 0
v -48 -80 0
v -48 -64 0
v -32 -64 0
v 0 -80 0
v -16 -80 0
v -16 -64 0
v 0 -64 0
v -384 -64 0
v -400 -64 0
v -400 -48 0
v -384 -48 0
v -240 -64 0
v -256 -64 0
v -256 -48 0
v -240 -48 0
v -224 -64 0
v -240 -64 0
v -240 -48 0
v -224 -48 0
v -208 -64 0
v -224 -64 0
v -224 -48 0
v -208 -48 0
v -192 -64 0
v -208 -64 0
v -208 -48 0
v -192 -48 0
v -176 -64 0
v -192 -64 0
v -192 -48 0
v -176 -48 0
v -48 -64 0
v -64 -64 0
v -64 -48 0
v -48 -48 0
v -32 -64 0
v -48 -64 0
v -48 -48 0
v -32 -48 0
v 0 -64 0
v -16 -64 0
v -16 -48 0
v 0 -48 0
v -384 -48 0
v -400 -48 0
v -400 -32 0
v -384 -32 0
v -240 -48 0
v -256 -48 0
v -256 -32 0
v -240 -32 0
v -224 -48 0
v -240 -48 0
v -240 -32 0
v -224 -32 0
v -208 -48 0
v -224 -48 0
v -224 -32 0
v -208 -32 0
v -192 -48 0
v -208 -48 0
v -208 -32 0
v -192 -32 0
v -176 -48 0
v -192 -48 0
v -192 -32 0
v -176 -32 0
v -48 -48 0
v -64 -48 0
v -64 -32 0
v -48 -32 0
v -32 -48 0
v -48 -48 0
v -48 -32 0
v -32 -32 0
v 0 -48 0
v -16 -48 0
v -16 -32 0
v 0 -32 0
v -384 -32 0
v -400 -32 0
v -400 -16 0
v -384 -16 0
v 0 -32 0
v -16 -32 0
v -16 -16 0
v 0 -16 0
v -384 -16 0
v -400 -16 0
v -400 0 0
v -384 0 0
v -368 -16 0
v -384 -16 0
v -384 0 0
v -368 0 0
v -352 -16 0
v -368 -16 0
v -368 0 0
v -352 0 0
v -336 -16 0
v -352 -16 0
v -352 0 0
v -336 0 0
v -320 -16 0
v -336 -16 0
v -336 0 0
v -320 0 0
v -304 -16 0
v -320 -16 0
v -320 0 0
v -304 0 0
v -288 -16 0
v -304 -16 0
v -304 0 0
v -288 0 0
v -272 -16 0
v -288 -16 0
v -288 0 0
v -272 0 0
v -256 -16 0
v -272 -16 0
v -272 0 0
v -256 0 0
v -240 -16 0
v -256 -16 0
v -256 0 0
v -240 0 0
v -224 -16 0
v -240 -16 0
v -240 0 0
v -224 0 0
v -208 -16 0
v -224 -16 0
v -224 0 0
v -208 0 0
v -192 -16 0
v -208 -16 0
v -208 0 0
v -192 0 0
v -176 -16 0
v -192 -16 0
v -192 0 0
v -176 0 0
v -128 -16 0
v -144 -16 0
v -144 0 0
v -128 0 0
v -112 -16 0
v -128 -16 0
v -128 0 0
v -112 0 0
v -96 -16 0
v -112 -16 0
v -112 0 0
v -96 0 0
v -80 -16 0
v -96 -16 0
v -96 0 0
v -80 0 0
v -64 -16 0
v -80 -16 0
v -80 0 0
v -64 0 0
v -48 -16 0
v -64 -16 0
v -64 0 0
v -48 0 0
v -32 -16 0
v -48 -16 0
v -48 0 0
v -32 0 0
v -16 -16 0
v -32 -16 0
v -32 0 0
v -16 0 0
v 0 -16 0
v -16 -16 0
v -16 0 0
v 0 0 0

# Texture cooridinates (Count = 114)
vt 0.175 0.5277778
vt 0.2 0.5277778
vt 0.2 0.5555556
vt 0.175 0.5555556
vt 0.125 0.4722222
vt 0.15 0.4722222
vt 0.15 0.5
vt 0.125 0.5
vt 0.125 0.5277778
vt 0.15 0.5277778
vt 0.15 0.5555556
vt 0.125 0.5555556
vt 0.175 0.5
vt 0.2 0.5
vt 0.175 0.4722222
vt 0.2 0.4722222
vt 0.25 0.8333333
vt 0.275 0.8333333
vt 0.275 0.8611111
vt 0.25 0.8611111
vt 0.225 0.8333333
vt 0.225 0.8611111
vt 0.2 0.8333333
vt 0.2 0.8611111
vt 0.125 0.9166667
vt 0.15 0.9166667
vt 0.15 0.9444444
vt 0.125 0.9444444
vt 0.1 0.9166667
vt 0.1 0.9444444
vt 0.15 0.9722222
vt 0.125 0.9722222
vt 0.1 0.9722222
vt 0.05 0.1944444
vt 0.075 0.1944444
vt 0.075 0.2222222
vt 0.05 0.2222222
vt 0.025 0.1944444
vt 0.025 0.2222222
vt 0 0.1944444
vt 0 0.2222222
vt 0.075 0.25
vt 0.05 0.25
vt 0.025 0.25
vt 0 0.25
vt 0.075 0.2777778
vt 0.05 0.2777778
vt 0.025 0.2777778
vt 0 0.2777778
vt 0.075 0.3055556
vt 0.05 0.3055556
vt 0.025 0.3055556
vt 0 0.3055556
vt 0.075 0.3333333
vt 0.05 0.3333333
vt 0.025 0.3333333
vt 0 0.3333333
vt 0.075 0.3611111
vt 0.05 0.3611111
vt 0.025 0.3611111
vt 0 0.3611111
vt 0.075 0.3888889
vt 0.05 0.3888889
vt 0.025 0.3888889
vt 0 0.3888889
vt 0.075 0.4166667
vt 0.05 0.4166667
vt 0.025 0.4166667
vt 0 0.4166667
vt 0.275 0.8888889
vt 0.25 0.8888889
vt 0.225 0.8888889
vt 0.2 0.8888889
vt 0.175 0.8611111
vt 0.175 0.8888889
vt 0.15 0.8611111
vt 0.15 0.8888889
vt 0.175 0.8333333
vt 0.15 0.8333333
vt 0.275 0.9166667
vt 0.25 0.9166667
vt 0.225 0.9166667
vt 0.2 0.9166667
vt 0.175 0.9166667
vt 0.275 0.9444444
vt 0.25 0.9444444
vt 0.225 0.9444444
vt 0.2 0.9444444
vt 0.175 0.9444444
vt 0.35 0.7777778
vt 0.375 0.7777778
vt 0.375 0.8055556
vt 0.35 0.8055556
vt 0.325 0.7777778
vt 0.325 0.8055556
vt 0.275 0.9722222
vt 0.25 0.9722222
vt 0.225 0.9722222
vt 0.2 0.9722222
vt 0.175 0.9722222
vt 0.375 0.8333333
vt 0.35 0.8333333
vt 0.325 0.8333333
vt 0.275 1
vt 0.25 1
vt 0.225 1
vt 0.2 1
vt 0.175 1
vt 0.15 1
vt 0.375 0.8611111
vt 0.35 0.8611111
vt 0.325 0.8611111
vt 0.125 0.4444444
vt 0.15 0.4444444

# Normal
vn 0 0 -1

# Mesh description
g OverworldTest_mesh_0002

# Faces
f 1/1/1 2/2/1 3/3/1 4/4/1
f 5/5/1 6/6/1 7/7/1 8/8/1
f 9/5/1 10/6/1 11/7/1 12/8/1
f 13/5/1 14/6/1 15/7/1 16/8/1
f 17/9/1 18/10/1 19/11/1 20/12/1
f 21/10/1 22/1/1 23/4/1 24/11/1
f 25/5/1 26/6/1 27/7/1 28/8/1
f 29/5/1 30/6/1 31/7/1 32/8/1
f 33/5/1 34/6/1 35/7/1 36/8/1
f 37/5/1 38/6/1 39/7/1 40/8/1
f 41/5/1 42/6/1 43/7/1 44/8/1
f 45/5/1 46/6/1 47/7/1 48/8/1
f 49/5/1 50/6/1 51/7/1 52/8/1
f 53/5/1 54/6/1 55/7/1 56/8/1
f 57/5/1 58/6/1 59/7/1 60/8/1
f 61/5/1 62/6/1 63/7/1 64/8/1
f 65/5/1 66/6/1 67/7/1 68/8/1
f 69/5/1 70/6/1 71/7/1 72/8/1
f 73/5/1 74/6/1 75/7/1 76/8/1
f 77/5/1 78/6/1 79/7/1 80/8/1
f 81/5/1 82/6/1 83/7/1 84/8/1
f 85/5/1 86/6/1 87/7/1 88/8/1
f 89/5/1 90/6/1 91/7/1 92/8/1
f 93/13/1 94/14/1 95/2/1 96/1/1
f 97/6/1 98/15/1 99/13/1 100/7/1
f 101/15/1 102/16/1 103/14/1 104/13/1
f 105/6/1 106/15/1 107/13/1 108/7/1
f 109/15/1 110/16/1 111/14/1 112/13/1
f 113/6/1 114/15/1 115/13/1 116/7/1
f 117/15/1 118/16/1 119/14/1 120/13/1
f 121/6/1 122/15/1 123/13/1 124/7/1
f 125/17/1 126/18/1 127/19/1 128/20/1
f 129/21/1 130/17/1 131/20/1 132/22/1
f 133/23/1 134/21/1 135/22/1 136/24/1
f 137/25/1 138/26/1 139/27/1 140/28/1
f 141/29/1 142/25/1 143/28/1 144/30/1
f 145/15/1 146/16/1 147/14/1 148/13/1
f 149/6/1 150/15/1 151/13/1 152/7/1
f 153/28/1 154/27/1 155/31/1 156/32/1
f 157/30/1 158/28/1 159/32/1 160/33/1
f 161/15/1 162/16/1 163/14/1 164/13/1
f 165/6/1 166/15/1 167/13/1 168/7/1
f 169/15/1 170/16/1 171/14/1 172/13/1
f 173/6/1 174/15/1 175/13/1 176/7/1
f 177/34/1 178/35/1 179/36/1 180/37/1
f 181/38/1 182/34/1 183/37/1 184/39/1
f 185/40/1 186/38/1 187/39/1 188/41/1
f 189/15/1 190/16/1 191/14/1 192/13/1
f 193/6/1 194/15/1 195/13/1 196/7/1
f 197/37/1 198/36/1 199/42/1 200/43/1
f 201/39/1 202/37/1 203/43/1 204/44/1
f 205/41/1 206/39/1 207/44/1 208/45/1
f 209/15/1 210/16/1 211/14/1 212/13/1
f 213/6/1 214/15/1 215/13/1 216/7/1
f 217/43/1 218/42/1 219/46/1 220/47/1
f 221/44/1 222/43/1 223/47/1 224/48/1
f 225/45/1 226/44/1 227/48/1 228/49/1
f 229/10/1 230/1/1 231/4/1 232/11/1
f 233/6/1 234/15/1 235/13/1 236/7/1
f 237/47/1 238/46/1 239/50/1 240/51/1
f 241/48/1 242/47/1 243/51/1 244/52/1
f 245/49/1 246/48/1 247/52/1 248/53/1
f 249/6/1 250/15/1 251/13/1 252/7/1
f 253/51/1 254/50/1 255/54/1 256/55/1
f 257/52/1 258/51/1 259/55/1 260/56/1
f 261/53/1 262/52/1 263/56/1 264/57/1
f 265/7/1 266/13/1 267/1/1 268/10/1
f 269/6/1 270/15/1 271/13/1 272/7/1
f 273/55/1 274/54/1 275/58/1 276/59/1
f 277/56/1 278/55/1 279/59/1 280/60/1
f 281/57/1 282/56/1 283/60/1 284/61/1
f 285/15/1 286/16/1 287/14/1 288/13/1
f 289/6/1 290/15/1 291/13/1 292/7/1
f 293/59/1 294/58/1 295/62/1 296/63/1
f 297/60/1 298/59/1 299/63/1 300/64/1
f 301/61/1 302/60/1 303/64/1 304/65/1
f 305/25/1 306/26/1 307/27/1 308/28/1
f 309/29/1 310/25/1 311/28/1 312/30/1
f 313/15/1 314/16/1 315/14/1 316/13/1
f 317/6/1 318/15/1 319/13/1 320/7/1
f 321/63/1 322/62/1 323/66/1 324/67/1
f 325/64/1 326/63/1 327/67/1 328/68/1
f 329/65/1 330/64/1 331/68/1 332/69/1
f 333/28/1 334/27/1 335/31/1 336/32/1
f 337/30/1 338/28/1 339/32/1 340/33/1
f 341/15/1 342/16/1 343/14/1 344/13/1
f 345/9/1 346/10/1 347/11/1 348/12/1
f 349/15/1 350/16/1 351/14/1 352/13/1
f 353/15/1 354/16/1 355/14/1 356/13/1
f 357/8/1 358/7/1 359/10/1 360/9/1
f 361/15/1 362/16/1 363/14/1 364/13/1
f 365/6/1 366/15/1 367/13/1 368/7/1
f 369/20/1 370/19/1 371/70/1 372/71/1
f 373/22/1 374/20/1 375/71/1 376/72/1
f 377/24/1 378/22/1 379/72/1 380/73/1
f 381/74/1 382/24/1 383/73/1 384/75/1
f 385/76/1 386/74/1 387/75/1 388/77/1
f 389/15/1 390/16/1 391/14/1 392/13/1
f 393/6/1 394/15/1 395/13/1 396/7/1
f 397/78/1 398/23/1 399/24/1 400/74/1
f 401/79/1 402/78/1 403/74/1 404/76/1
f 405/71/1 406/70/1 407/80/1 408/81/1
f 409/72/1 410/71/1 411/81/1 412/82/1
f 413/73/1 414/72/1 415/82/1 416/83/1
f 417/75/1 418/73/1 419/83/1 420/84/1
f 421/77/1 422/75/1 423/84/1 424/26/1
f 425/15/1 426/16/1 427/14/1 428/13/1
f 429/6/1 430/15/1 431/13/1 432/7/1
f 433/81/1 434/80/1 435/85/1 436/86/1
f 437/82/1 438/81/1 439/86/1 440/87/1
f 441/83/1 442/82/1 443/87/1 444/88/1
f 445/84/1 446/83/1 447/88/1 448/89/1
f 449/26/1 450/84/1 451/89/1 452/27/1
f 453/90/1 454/91/1 455/92/1 456/93/1
f 457/94/1 458/90/1 459/93/1 460/95/1
f 461/15/1 462/16/1 463/14/1 464/13/1
f 465/6/1 466/15/1 467/13/1 468/7/1
f 469/86/1 470/85/1 471/96/1 472/97/1
f 473/87/1 474/86/1 475/97/1 476/98/1
f 477/88/1 478/87/1 479/98/1 480/99/1
f 481/89/1 482/88/1 483/99/1 484/100/1
f 485/27/1 486/89/1 487/100/1 488/31/1
f 489/93/1 490/92/1 491/101/1 492/102/1
f 493/95/1 494/93/1 495/102/1 496/103/1
f 497/15/1 498/16/1 499/14/1 500/13/1
f 501/6/1 502/15/1 503/13/1 504/7/1
f 505/97/1 506/96/1 507/104/1 508/105/1
f 509/98/1 510/97/1 511/105/1 512/106/1
f 513/99/1 514/98/1 515/106/1 516/107/1
f 517/100/1 518/99/1 519/107/1 520/108/1
f 521/31/1 522/100/1 523/108/1 524/109/1
f 525/102/1 526/101/1 527/110/1 528/111/1
f 529/103/1 530/102/1 531/111/1 532/112/1
f 533/15/1 534/16/1 535/14/1 536/13/1
f 537/6/1 538/15/1 539/13/1 540/7/1
f 541/15/1 542/16/1 543/14/1 544/13/1
f 545/13/1 546/14/1 547/2/1 548/1/1
f 549/113/1 550/114/1 551/6/1 552/5/1
f 553/113/1 554/114/1 555/6/1 556/5/1
f 557/113/1 558/114/1 559/6/1 560/5/1
f 561/113/1 562/114/1 563/6/1 564/5/1
f 565/113/1 566/114/1 567/6/1 568/5/1
f 569/113/1 570/114/1 571/6/1 572/5/1
f 573/113/1 574/114/1 575/6/1 576/5/1
f 577/113/1 578/114/1 579/6/1 580/5/1
f 581/113/1 582/114/1 583/6/1 584/5/1
f 585/113/1 586/114/1 587/6/1 588/5/1
f 589/113/1 590/114/1 591/6/1 592/5/1
f 593/113/1 594/114/1 595/6/1 596/5/1
f 597/8/1 598/7/1 599/10/1 600/9/1
f 601/7/1 602/13/1 603/1/1 604/10/1
f 605/113/1 606/114/1 607/6/1 608/5/1
f 609/113/1 610/114/1 611/6/1 612/5/1
f 613/113/1 614/114/1 615/6/1 616/5/1
f 617/113/1 618/114/1 619/6/1 620/5/1
f 621/113/1 622/114/1 623/6/1 624/5/1
f 625/113/1 626/114/1 627/6/1 628/5/1
f 629/113/1 630/114/1 631/6/1 632/5/1
f 633/1/1 634/2/1 635/3/1 636/4/1

